# xmcd CD database file
#
# Track frame offsets:
#	150
#	11059
#	24718
#	46473
#	66740
#	88176
#	115737
#	119653
#	125410
#	134714
#	140093
#	158958
#	173363
#
# Disc length: 2545 seconds
#
# Revision: 0
# Processed by: cddbd v1.5.1PL0 Copyright (c) Steve Scherf et al.
# Submitted via: CDex 1.51
#
DISCID=c509ef0d
DTITLE=Trio Gitano - Who Ate All the Tapas?
DYEAR=2005
DGENRE=Jazz
TTITLE0=Latin Swing
TTITLE1=Minor Blues
TTITLE2=Adagio
TTITLE3=Spanish Cinema
TTITLE4=Baiao De Gude
TTITLE5=Take 5
TTITLE6=Heroes: I - Prelude
TTITLE7=Heroes: II - Paganini Passing
TTITLE8=Heroes: III - Heroes
TTITLE9=Heroes: IV - Dance and Cadenza
TTITLE10=Saeta
TTITLE11=On The Run
TTITLE12=Blue Drag
EXTD=YEAR: 2005
EXTT0=
EXTT1=
EXTT2=
EXTT3=
EXTT4=
EXTT5=
EXTT6=
EXTT7=
EXTT8=
EXTT9=
EXTT10=
EXTT11=
EXTT12=
PLAYORDER=
